<?xml version="1.0" encoding="utf-8"?>
<!-- Generator: Adobe Illustrator 21.1.0, SVG Export Plug-In . SVG Version: 6.00 Build 0)  -->
<svg version="1.1" id="Ebene_1" xmlns="http://www.w3.org/2000/svg" xmlns:xlink="http://www.w3.org/1999/xlink" x="0px" y="0px"
	 viewBox="0 0 706.6 146" style="enable-background:new 0 0 706.6 146;" xml:space="preserve">
<style type="text/css">
	.st0{fill:#000;}
</style>
<path class="st0" d="M132.3,26.3C126.4,20.4,77,0,68.6,0S10.8,20.4,4.9,26.3C1.7,29.5,0,33.7,0,38.2v69.6c0,4.5,1.7,8.7,4.9,11.9
	c5.9,5.9,55.3,26.3,63.7,26.3s57.8-20.4,63.7-26.3c3.2-3.2,4.9-7.4,4.9-11.9V38.2C137.2,33.7,135.5,29.5,132.3,26.3z M11,39.7
	c0-2.1,0.8-4.2,2.4-5.7c4.1-4.1,49.5-22.8,55.3-22.8c1.6,0,8.7,2.3,17.3,5.5l2.3,0.9L86,18.3c-11,3.4-16,9.5-18,12.8L35.4,87.9h-0.5
	c-4.5-0.4-19.6-3.4-23.9-26.6C11,61.3,11,39.7,11,39.7z M91.3,88.5H47l22.4-38.2L91.3,88.5z M79.2,131.7c-8.1,2.8-10.3,3.1-10.6,3.1
	c-5.8,0-51.2-18.8-55.3-22.8c-1.5-1.5-2.4-3.5-2.4-5.7V86.7l1.5,1.6c9.2,10.1,21.2,10.3,21.3,10.3h61.4l0.2,0.6
	C97.3,106.5,97.9,120.3,79.2,131.7z M123.9,112c-1.3,1.3-9.2,5.2-18.9,9.5l-2.1,0.9l1-2.1c6.2-12.8,2.3-24.6,2.3-24.8l-0.9-2.9
	l-30-52l0.3-0.4c3.6-5.2,11.7-13.8,25.5-13.8c4.1,0,8.6,0.8,13.1,2.4c7.5,3.6,9.3,5,9.7,5.3c1.5,1.5,2.4,3.6,2.4,5.7v66.6
	C126.2,108.4,125.4,110.5,123.9,112z"/>
<g>
	<path class="st0" d="M706.6,62.3c0-8.9-5-17.4-12.8-21.7c-7.6-4.2-16.9-4.1-24.4,0.2c-2.1,1.2-4,2.7-5.7,4.4c-0.9,0.9-1.7,1.9-2.4,2.9
		c-0.5,0.7-1.6,2-1.6,2.8c-3.1-6-8.7-10.6-15.1-12.4c-6.3-1.8-13.2-1.1-19,2.1c-3.2,1.8-5.9,4.2-8.1,7.2v-8.2h-11.6
		c0,7.3,0,14.7,0,22c0,11.8,0,23.6,0,35.4c0,2.7,0,5.4,0,8c3.9,0,7.7,0,11.6,0c0-7.5,0-15.1,0-22.6c0-2.5,0-4.9,0-7.4
		c0-1.7,0-3.3,0-5c0-2.4,0-4.9,0.1-7.2c0.5-7.9,6.8-14.5,14.6-15.6c7.7-1,15.2,3.7,17.8,10.9c1.5,4,1,8.9,1,13.2c0,4.2,0,8.3,0,12.5
		c0,6.8,0,13.6,0,20.4c0,0.3,0,0.6,0,0.9c3.8,0,7.6,0,11.5,0c0-5.5,0-11,0-16.5c0-7.5,0-15.1,0-22.6c0-2.5,0-4.9,0-7.4l0.1,0.2
		c2.9-8.6,12.4-13.5,21-10.7c7.2,2.3,11.7,9.1,11.7,16.5c0,8.4,0,16.7,0,25.1c0,5.2,0,10.4,0,15.6h11.3c0-4.8,0-9.5,0-14.3
		c0-7.4,0-14.9,0-22.3C706.6,66.4,706.6,64.4,706.6,62.3z"/>
	<path class="st0" d="M488.2,95.7c-6.1,0-12-2.2-16.4-6.4c-4.3-4.2-6.7-10-6.9-16c-0.2-6,1.6-12.1,5.5-16.7c3.8-4.5,9.3-7.1,15.1-7.7
		c7.8-0.8,15.9,2,20.8,8.3l10-5.8C509,40.9,496,36.2,483.6,37.7c-10.7,1.3-20.5,7.4-25.9,16.8c-5.5,9.6-6.1,21.8-1.7,32
		c4.2,9.8,13.1,17,23.4,19.5c12,2.9,25.3-0.4,34-9.4c1.1-1.1,2-2.3,2.9-3.5l-9.9-5.8C502.3,92.6,495.8,95.7,488.2,95.7z"/>
	<path class="st0" d="M279.3,68.3c-1.6-14.4-12.3-26.4-26.4-29.8c-11.7-2.8-24.4,0.2-33.2,8.6c-8.1,7.7-11.8,19-10.3,30
		c1.4,10.8,8,20.4,17.6,25.6c11.3,6.1,25.7,5.7,36.6-1.2c1.5-1,3-2.1,4.3-3.3v8.8h11.6c0-4.2,0-8.4,0-12.6c0-6.3,0-12.7,0-19
		C279.5,73,279.5,70.6,279.3,68.3z M244.2,96c-9.9,0-18.9-6-22.2-15.5c-3.2-9.4-0.6-20.5,7.1-26.8c7.7-6.2,19.2-6.9,27.6-1.8
		c8.6,5.2,12.5,15.5,10.6,25.2s-9.6,17.1-19.4,18.5C246.8,95.9,245.5,96,244.2,96z"/>
	<path class="st0" d="M560.2,37.5c-14.6,0-28.1,9-33.1,22.8s-0.7,29.8,10.8,39.1c11.5,9.2,28.3,10.2,40.9,2.6c12.6-7.5,18.9-22.5,16-36.8
		s-14.7-25.2-29-27.3C563.9,37.6,562.1,37.5,560.2,37.5z M560.2,96c-9.9,0-18.9-6-22.2-15.5c-3.2-9.4-0.6-20.5,7.1-26.8
		c7.7-6.2,19.2-6.9,27.6-1.8c8.6,5.2,12.5,15.5,10.6,25.2s-9.6,17.1-19.4,18.5C562.8,95.9,561.5,96,560.2,96z"/>
	<path class="st0" d="M442.8,73c0-14.1-8-27.9-21.5-32.9c-7.7-2.9-16-3.7-24-1.4c-6.9,2-13,6-17.6,11.5c-5,6-7.9,13.6-8.2,21.4
		c-0.1,1.9,0,3.9,0,5.8c0,9,0,17.9,0,26.9c0,6.9,0,13.8,0,20.8c0,0.1,0,0.2,0,0.4l11.6-4.4V99.5c9.2,8.4,22.3,11.4,34.2,7.9
		c4.8-1.4,9.2-3.3,13.1-6.6c3.7-3.1,6.7-7,8.8-11.4C441.7,84.2,442.8,78.6,442.8,73z M407.1,97.2c-10.1,0-19.3-6-22.6-15.7
		c-3.2-9.5-0.7-21,7.2-27.5c7.8-6.3,19.8-6.9,28.3-1.7c8.8,5.3,12.5,15.9,10.7,25.8C428.8,88,421,95.5,411,97
		C409.8,97.1,408.4,97.2,407.1,97.2z"/>
	<path class="st0" d="M361.2,73c0-14.1-8-27.9-21.5-32.9c-7.7-2.9-16-3.7-24-1.4c-6.9,2-13,6-17.6,11.5c-5,6-7.9,13.6-8.2,21.4c-0.1,2,0,4,0,5.9
		c0,8.9,0,17.9,0,26.8c0,6.9,0,13.8,0,20.7c0,0.1,0,0.2,0,0.4l11.6-4.4V99.4c9.1,8.3,22.2,11.4,34,7.9c4.8-1.4,9.3-3.3,13.2-6.5
		c3.7-3.1,6.7-6.9,8.8-11.2C359.9,84.4,361.2,78.7,361.2,73z M325.4,97.2c-10.1,0-19.3-6-22.6-15.7c-3.2-9.5-0.7-21,7.2-27.5
		c7.8-6.3,19.8-6.9,28.3-1.7c8.8,5.3,12.5,15.9,10.7,25.8c-1.9,9.9-9.7,17.4-19.7,18.9C328.1,97.1,326.8,97.2,325.4,97.2z"/>
</g>
</svg>
