<svg xmlns="http://www.w3.org/2000/svg" id="logo1" viewBox="0 0 706.6 146"><path d="M132.3 26.3C126.4 20.4 77 0 68.6 0S10.8 20.4 4.9 26.3C1.7 29.5 0 33.7 0 38.2v69.6c0 4.5 1.7 8.7 4.9 11.9 5.9 5.9 55.3 26.3 63.7 26.3s57.8-20.4 63.7-26.3c3.2-3.2 4.9-7.4 4.9-11.9V38.2c0-4.5-1.7-8.7-4.9-11.9zM11 39.7c0-2.1.8-4.2 2.4-5.7 4.1-4.1 49.5-22.8 55.3-22.8 1.6 0 8.7 2.3 17.3 5.5l2.3.9-2.3.7c-11 3.4-16 9.5-18 12.8L35.4 87.9h-.5c-4.5-.4-19.6-3.4-23.9-26.6V39.7zm80.3 48.8H47l22.4-38.2 21.9 38.2zm-12.1 43.2c-8.1 2.8-10.3 3.1-10.6 3.1-5.8 0-51.2-18.8-55.3-22.8-1.5-1.5-2.4-3.5-2.4-5.7V86.7l1.5 1.6c9.2 10.1 21.2 10.3 21.3 10.3h61.4l.2.6c2 7.3 2.6 21.1-16.1 32.5zm44.7-19.7c-1.3 1.3-9.2 5.2-18.9 9.5l-2.1.9 1-2.1c6.2-12.8 2.3-24.6 2.3-24.8l-.9-2.9-30-52 .3-.4c3.6-5.2 11.7-13.8 25.5-13.8 4.1 0 8.6.8 13.1 2.4 7.5 3.6 9.3 5 9.7 5.3 1.5 1.5 2.4 3.6 2.4 5.7v66.6c-.1 2-.9 4.1-2.4 5.6zM706.6 62.3c0-8.9-5-17.4-12.8-21.7-7.6-4.2-16.9-4.1-24.4.2-2.1 1.2-4 2.7-5.7 4.4-.9.9-1.7 1.9-2.4 2.9-.5.7-1.6 2-1.6 2.8-3.1-6-8.7-10.6-15.1-12.4-6.3-1.8-13.2-1.1-19 2.1-3.2 1.8-5.9 4.2-8.1 7.2v-8.2h-11.6V105h11.6V82.4 75v-5c0-2.4 0-4.9.1-7.2.5-7.9 6.8-14.5 14.6-15.6 7.7-1 15.2 3.7 17.8 10.9 1.5 4 1 8.9 1 13.2v33.8h11.5V88.6 66v-7.4l.1.2c2.9-8.6 12.4-13.5 21-10.7 7.2 2.3 11.7 9.1 11.7 16.5v40.7h11.3V91 68.7v-6.4zM488.2 95.7c-6.1 0-12-2.2-16.4-6.4-4.3-4.2-6.7-10-6.9-16-.2-6 1.6-12.1 5.5-16.7 3.8-4.5 9.3-7.1 15.1-7.7 7.8-.8 15.9 2 20.8 8.3l10-5.8C509 40.9 496 36.2 483.6 37.7c-10.7 1.3-20.5 7.4-25.9 16.8-5.5 9.6-6.1 21.8-1.7 32 4.2 9.8 13.1 17 23.4 19.5 12 2.9 25.3-.4 34-9.4 1.1-1.1 2-2.3 2.9-3.5l-9.9-5.8c-4.1 5.3-10.6 8.4-18.2 8.4zM279.3 68.3c-1.6-14.4-12.3-26.4-26.4-29.8-11.7-2.8-24.4.2-33.2 8.6-8.1 7.7-11.8 19-10.3 30 1.4 10.8 8 20.4 17.6 25.6 11.3 6.1 25.7 5.7 36.6-1.2 1.5-1 3-2.1 4.3-3.3v8.8h11.6V94.4v-19c0-2.4 0-4.8-.2-7.1zM244.2 96c-9.9 0-18.9-6-22.2-15.5-3.2-9.4-.6-20.5 7.1-26.8 7.7-6.2 19.2-6.9 27.6-1.8 8.6 5.2 12.5 15.5 10.6 25.2s-9.6 17.1-19.4 18.5c-1.1.3-2.4.4-3.7.4zM560.2 37.5c-14.6 0-28.1 9-33.1 22.8s-.7 29.8 10.8 39.1c11.5 9.2 28.3 10.2 40.9 2.6 12.6-7.5 18.9-22.5 16-36.8s-14.7-25.2-29-27.3c-1.9-.3-3.7-.4-5.6-.4zm0 58.5c-9.9 0-18.9-6-22.2-15.5-3.2-9.4-.6-20.5 7.1-26.8 7.7-6.2 19.2-6.9 27.6-1.8 8.6 5.2 12.5 15.5 10.6 25.2s-9.6 17.1-19.4 18.5c-1.1.3-2.4.4-3.7.4zM442.8 73c0-14.1-8-27.9-21.5-32.9-7.7-2.9-16-3.7-24-1.4-6.9 2-13 6-17.6 11.5-5 6-7.9 13.6-8.2 21.4-.1 1.9 0 3.9 0 5.8v48.1l11.6-4.4V99.5c9.2 8.4 22.3 11.4 34.2 7.9 4.8-1.4 9.2-3.3 13.1-6.6 3.7-3.1 6.7-7 8.8-11.4 2.5-5.2 3.6-10.8 3.6-16.4zm-35.7 24.2c-10.1 0-19.3-6-22.6-15.7-3.2-9.5-.7-21 7.2-27.5 7.8-6.3 19.8-6.9 28.3-1.7 8.8 5.3 12.5 15.9 10.7 25.8C428.8 88 421 95.5 411 97c-1.2.1-2.6.2-3.9.2zM361.2 73c0-14.1-8-27.9-21.5-32.9-7.7-2.9-16-3.7-24-1.4-6.9 2-13 6-17.6 11.5-5 6-7.9 13.6-8.2 21.4-.1 2 0 4 0 5.9v47.9l11.6-4.4V99.4c9.1 8.3 22.2 11.4 34 7.9 4.8-1.4 9.3-3.3 13.2-6.5 3.7-3.1 6.7-6.9 8.8-11.2 2.4-5.2 3.7-10.9 3.7-16.6zm-35.8 24.2c-10.1 0-19.3-6-22.6-15.7-3.2-9.5-.7-21 7.2-27.5 7.8-6.3 19.8-6.9 28.3-1.7 8.8 5.3 12.5 15.9 10.7 25.8-1.9 9.9-9.7 17.4-19.7 18.9-1.2.1-2.5.2-3.9.2z" class="st0"/></svg>
