<svg xmlns="http://www.w3.org/2000/svg" id="logo2" viewBox="0 0 269.5 232.7"><path d="M198.4 26.3C192.5 20.4 143.1 0 134.7 0 126.3 0 76.9 20.4 71 26.3c-3.2 3.2-4.9 7.4-4.9 11.9v69.6c0 4.5 1.7 8.7 4.9 11.9 5.9 5.9 55.3 26.3 63.7 26.3s57.8-20.4 63.7-26.3c3.2-3.2 4.9-7.4 4.9-11.9V38.2c0-4.5-1.7-8.7-4.9-11.9zM77.1 39.7c0-2.1.8-4.2 2.4-5.7 4.1-4.1 49.5-22.8 55.3-22.8 1.6 0 8.7 2.3 17.3 5.5l2.3.9-2.3.7c-11 3.4-16 9.5-18 12.8l-32.6 56.8h-.5c-4.5-.4-19.6-3.4-23.9-26.6V39.7zm80.3 48.8h-44.3l22.4-38.2 21.9 38.2zm-12.1 43.2c-8.1 2.8-10.3 3.1-10.6 3.1-5.8 0-51.2-18.8-55.3-22.8-1.5-1.5-2.4-3.5-2.4-5.7V86.7l1.5 1.6c9.2 10.1 21.2 10.3 21.3 10.3h61.4l.2.6c2 7.3 2.6 21.1-16.1 32.5zM190 112c-1.3 1.3-9.2 5.2-18.9 9.5l-2.1.9 1-2.1c6.2-12.8 2.3-24.6 2.3-24.8l-.9-2.9-30-52 .3-.4c3.6-5.2 11.7-13.8 25.5-13.8 4.1 0 8.6.8 13.1 2.4 7.5 3.6 9.3 5 9.7 5.3 1.5 1.5 2.4 3.6 2.4 5.7v66.6c-.1 2-.9 4.1-2.4 5.6zM269.5 198.5c0-4.8-2.7-9.4-6.9-11.8-4.1-2.3-9.2-2.2-13.2.1-1.1.6-2.2 1.5-3.1 2.4-.5.5-.9 1-1.3 1.6-.3.4-.9 1.1-.9 1.5-1.7-3.2-4.7-5.7-8.2-6.7-3.4-1-7.1-.6-10.3 1.1-1.7 1-3.2 2.3-4.4 3.9v-4.4h-6.3v35.4h6.3v-12.2-4-2.7c0-1.3 0-2.7.1-3.9.3-4.3 3.7-7.9 7.9-8.4s8.2 2 9.6 5.9c.8 2.2.5 4.8.5 7.1v18.3h6.2v-8.9-12.2-4l.1.1c1.6-4.7 6.7-7.3 11.4-5.8 3.9 1.2 6.3 4.9 6.3 8.9v22h6.1v-7.7V202c.1-1.3.1-2.4.1-3.5zM151.2 216.6c-3.3 0-6.5-1.2-8.9-3.5-2.3-2.3-3.6-5.4-3.7-8.7-.1-3.2.9-6.6 3-9 2.1-2.4 5-3.8 8.2-4.2 4.2-.4 8.6 1.1 11.3 4.5l5.4-3.1c-4-5.7-11-8.2-17.7-7.4-5.8.7-11.1 4-14 9.1-3 5.2-3.3 11.8-.9 17.3 2.3 5.3 7.1 9.2 12.7 10.6 6.5 1.6 13.7-.2 18.4-5.1.6-.6 1.1-1.2 1.6-1.9L161 212c-2.2 2.9-5.7 4.6-9.8 4.6zM38 201.7c-.9-7.8-6.7-14.3-14.3-16.1-6.3-1.5-13.2.1-18 4.7-4.4 4.2-6.4 10.3-5.6 16.2.8 5.8 4.3 11 9.5 13.9 6.1 3.3 13.9 3.1 19.8-.6.8-.5 1.6-1.1 2.3-1.8v4.8H38V216v-10.3c.1-1.4.1-2.7 0-4zm-19 15c-5.4 0-10.2-3.2-12-8.4-1.7-5.1-.3-11.1 3.8-14.5 4.2-3.4 10.4-3.7 14.9-1 4.7 2.8 6.8 8.4 5.7 13.6-1 5.3-5.2 9.3-10.5 10-.5.3-1.2.3-1.9.3zM190.2 185.1c-7.9 0-15.2 4.9-17.9 12.3-2.7 7.5-.4 16.1 5.8 21.2 6.2 5 15.3 5.5 22.2 1.4 6.8-4.1 10.2-12.2 8.7-19.9-1.6-7.7-8-13.6-15.7-14.8-1.1-.2-2.1-.2-3.1-.2zm0 31.6c-5.4 0-10.2-3.2-12-8.4-1.7-5.1-.3-11.1 3.8-14.5 4.2-3.4 10.4-3.7 14.9-1 4.7 2.8 6.8 8.4 5.7 13.6-1 5.3-5.2 9.3-10.5 10-.5.3-1.2.3-1.9.3zM126.6 204.3c0-7.6-4.3-15.1-11.6-17.8-4.2-1.6-8.7-2-13-.8-3.7 1.1-7 3.2-9.5 6.2-2.7 3.2-4.3 7.4-4.4 11.6-.1 1 0 2.1 0 3.1V232.7l6.3-2.4v-11.7c5 4.5 12.1 6.2 18.5 4.3 2.6-.8 5-1.8 7.1-3.6 2-1.7 3.6-3.8 4.8-6.2 1.2-2.8 1.8-5.8 1.8-8.8zm-19.3 13.1c-5.5 0-10.5-3.2-12.2-8.5-1.7-5.1-.4-11.4 3.9-14.9 4.2-3.4 10.7-3.7 15.3-.9 4.8 2.9 6.8 8.6 5.8 14s-5.3 9.4-10.7 10.2c-.7 0-1.4.1-2.1.1zM82.4 204.3c0-7.6-4.3-15.1-11.6-17.8-4.2-1.6-8.7-2-13-.8-3.7 1.1-7 3.2-9.5 6.2-2.7 3.2-4.3 7.4-4.4 11.6-.1 1.1 0 2.2 0 3.2v25.9l6.3-2.4v-11.7c4.9 4.5 12 6.2 18.4 4.3 2.6-.8 5-1.8 7.1-3.5 2-1.7 3.6-3.7 4.8-6.1 1.2-2.7 1.9-5.8 1.9-8.9zM63 217.4c-5.5 0-10.5-3.2-12.2-8.5-1.7-5.1-.4-11.4 3.9-14.9 4.2-3.4 10.7-3.7 15.3-.9 4.8 2.9 6.8 8.6 5.8 14s-5.3 9.4-10.7 10.2c-.6 0-1.3.1-2.1.1z" class="st0"/></svg>
