<?xml version="1.0" encoding="utf-8"?>
<!-- Generator: Adobe Illustrator 21.1.0, SVG Export Plug-In . SVG Version: 6.00 Build 0)  -->
<svg version="1.1" id="Ebene_1" xmlns="http://www.w3.org/2000/svg" xmlns:xlink="http://www.w3.org/1999/xlink" x="0px" y="0px"
	 viewBox="0 0 269.5 232.7" style="enable-background:new 0 0 269.5 232.7;" xml:space="preserve">
<style type="text/css">
	.st0{fill:#000;}
</style>
<path class="st0" d="M198.4,26.3C192.5,20.4,143.1,0,134.7,0C126.3,0,76.9,20.4,71,26.3c-3.2,3.2-4.9,7.4-4.9,11.9v69.6
	c0,4.5,1.7,8.7,4.9,11.9c5.9,5.9,55.3,26.3,63.7,26.3s57.8-20.4,63.7-26.3c3.2-3.2,4.9-7.4,4.9-11.9V38.2
	C203.3,33.7,201.6,29.5,198.4,26.3z M77.1,39.7c0-2.1,0.8-4.2,2.4-5.7c4.1-4.1,49.5-22.8,55.3-22.8c1.6,0,8.7,2.3,17.3,5.5l2.3,0.9
	l-2.3,0.7c-11,3.4-16,9.5-18,12.8l-32.6,56.8H101c-4.5-0.4-19.6-3.4-23.9-26.6C77.1,61.3,77.1,39.7,77.1,39.7z M157.4,88.5h-44.3
	l22.4-38.2L157.4,88.5z M145.3,131.7c-8.1,2.8-10.3,3.1-10.6,3.1c-5.8,0-51.2-18.8-55.3-22.8c-1.5-1.5-2.4-3.5-2.4-5.7V86.7l1.5,1.6
	c9.2,10.1,21.2,10.3,21.3,10.3h61.4l0.2,0.6C163.4,106.5,164,120.3,145.3,131.7z M190,112c-1.3,1.3-9.2,5.2-18.9,9.5l-2.1,0.9l1-2.1
	c6.2-12.8,2.3-24.6,2.3-24.8l-0.9-2.9l-30-52l0.3-0.4c3.6-5.2,11.7-13.8,25.5-13.8c4.1,0,8.6,0.8,13.1,2.4c7.5,3.6,9.3,5,9.7,5.3
	c1.5,1.5,2.4,3.6,2.4,5.7v66.6C192.3,108.4,191.5,110.5,190,112z"/>
<g>
	<path class="st0" d="M269.5,198.5c0-4.8-2.7-9.4-6.9-11.8c-4.1-2.3-9.2-2.2-13.2,0.1c-1.1,0.6-2.2,1.5-3.1,2.4c-0.5,0.5-0.9,1-1.3,1.6
		c-0.3,0.4-0.9,1.1-0.9,1.5c-1.7-3.2-4.7-5.7-8.2-6.7c-3.4-1-7.1-0.6-10.3,1.1c-1.7,1-3.2,2.3-4.4,3.9v-4.4h-6.3c0,4,0,8,0,11.9
		c0,6.4,0,12.8,0,19.2c0,1.5,0,2.9,0,4.3c2.1,0,4.2,0,6.3,0c0-4.1,0-8.2,0-12.2c0-1.4,0-2.7,0-4c0-0.9,0-1.8,0-2.7
		c0-1.3,0-2.7,0.1-3.9c0.3-4.3,3.7-7.9,7.9-8.4c4.2-0.5,8.2,2,9.6,5.9c0.8,2.2,0.5,4.8,0.5,7.1c0,2.3,0,4.5,0,6.8c0,3.7,0,7.4,0,11
		c0,0.2,0,0.3,0,0.5c2.1,0,4.1,0,6.2,0c0-3,0-6,0-8.9c0-4.1,0-8.2,0-12.2c0-1.4,0-2.7,0-4l0.1,0.1c1.6-4.7,6.7-7.3,11.4-5.8
		c3.9,1.2,6.3,4.9,6.3,8.9c0,4.5,0,9,0,13.6c0,2.8,0,5.6,0,8.4h6.1c0-2.6,0-5.1,0-7.7c0-4,0-8.1,0-12.1
		C269.5,200.7,269.5,199.6,269.5,198.5z"/>
	<path class="st0" d="M151.2,216.6c-3.3,0-6.5-1.2-8.9-3.5c-2.3-2.3-3.6-5.4-3.7-8.7c-0.1-3.2,0.9-6.6,3-9c2.1-2.4,5-3.8,8.2-4.2
		c4.2-0.4,8.6,1.1,11.3,4.5l5.4-3.1c-4-5.7-11-8.2-17.7-7.4c-5.8,0.7-11.1,4-14,9.1c-3,5.2-3.3,11.8-0.9,17.3
		c2.3,5.3,7.1,9.2,12.7,10.6c6.5,1.6,13.7-0.2,18.4-5.1c0.6-0.6,1.1-1.2,1.6-1.9L161,212C158.8,214.9,155.3,216.6,151.2,216.6z"/>
	<path class="st0" d="M38,201.7c-0.9-7.8-6.7-14.3-14.3-16.1c-6.3-1.5-13.2,0.1-18,4.7c-4.4,4.2-6.4,10.3-5.6,16.2c0.8,5.8,4.3,11,9.5,13.9
		c6.1,3.3,13.9,3.1,19.8-0.6c0.8-0.5,1.6-1.1,2.3-1.8v4.8h6.3c0-2.3,0-4.5,0-6.8c0-3.4,0-6.9,0-10.3C38.1,204.3,38.1,203,38,201.7z
		 M19,216.7c-5.4,0-10.2-3.2-12-8.4c-1.7-5.1-0.3-11.1,3.8-14.5c4.2-3.4,10.4-3.7,14.9-1c4.7,2.8,6.8,8.4,5.7,13.6
		c-1,5.3-5.2,9.3-10.5,10C20.4,216.7,19.7,216.7,19,216.7z"/>
	<path class="st0" d="M190.2,185.1c-7.9,0-15.2,4.9-17.9,12.3c-2.7,7.5-0.4,16.1,5.8,21.2c6.2,5,15.3,5.5,22.2,1.4c6.8-4.1,10.2-12.2,8.7-19.9
		c-1.6-7.7-8-13.6-15.7-14.8C192.2,185.1,191.2,185.1,190.2,185.1z M190.2,216.7c-5.4,0-10.2-3.2-12-8.4c-1.7-5.1-0.3-11.1,3.8-14.5
		c4.2-3.4,10.4-3.7,14.9-1c4.7,2.8,6.8,8.4,5.7,13.6c-1,5.3-5.2,9.3-10.5,10C191.6,216.7,190.9,216.7,190.2,216.7z"/>
	<path class="st0" d="M126.6,204.3c0-7.6-4.3-15.1-11.6-17.8c-4.2-1.6-8.7-2-13-0.8c-3.7,1.1-7,3.2-9.5,6.2c-2.7,3.2-4.3,7.4-4.4,11.6
		c-0.1,1,0,2.1,0,3.1c0,4.9,0,9.7,0,14.6c0,3.7,0,7.5,0,11.3c0,0.1,0,0.1,0,0.2l6.3-2.4v-11.7c5,4.5,12.1,6.2,18.5,4.3
		c2.6-0.8,5-1.8,7.1-3.6c2-1.7,3.6-3.8,4.8-6.2C126,210.3,126.6,207.3,126.6,204.3z M107.3,217.4c-5.5,0-10.5-3.2-12.2-8.5
		c-1.7-5.1-0.4-11.4,3.9-14.9c4.2-3.4,10.7-3.7,15.3-0.9c4.8,2.9,6.8,8.6,5.8,14c-1,5.4-5.3,9.4-10.7,10.2
		C108.7,217.3,108,217.4,107.3,217.4z"/>
	<path class="st0" d="M82.4,204.3c0-7.6-4.3-15.1-11.6-17.8c-4.2-1.6-8.7-2-13-0.8c-3.7,1.1-7,3.2-9.5,6.2c-2.7,3.2-4.3,7.4-4.4,11.6
		c-0.1,1.1,0,2.2,0,3.2c0,4.8,0,9.7,0,14.5c0,3.7,0,7.5,0,11.2c0,0.1,0,0.1,0,0.2l6.3-2.4v-11.7c4.9,4.5,12,6.2,18.4,4.3
		c2.6-0.8,5-1.8,7.1-3.5c2-1.7,3.6-3.7,4.8-6.1C81.7,210.5,82.4,207.4,82.4,204.3z M63,217.4c-5.5,0-10.5-3.2-12.2-8.5
		c-1.7-5.1-0.4-11.4,3.9-14.9c4.2-3.4,10.7-3.7,15.3-0.9c4.8,2.9,6.8,8.6,5.8,14c-1,5.4-5.3,9.4-10.7,10.2
		C64.5,217.3,63.8,217.4,63,217.4z"/>
</g>
</svg>
